<svg width="27" height="23" viewBox="0 0 27 23" fill="none" xmlns="http://www.w3.org/2000/svg">
<path d="M9.02 22.24C7.36 22.24 5.88 21.82 4.58 20.98C3.3 20.12 2.29 18.88 1.55 17.26C0.81 15.64 0.44 13.72 0.44 11.5C0.44 9.28 0.81 7.36 1.55 5.74C2.29 4.12 3.3 2.89 4.58 2.05C5.88 1.19 7.36 0.76 9.02 0.76C10.66 0.76 12.12 1.19 13.4 2.05C14.7 2.89 15.72 4.12 16.46 5.74C17.2 7.36 17.57 9.28 17.57 11.5C17.57 13.72 17.2 15.64 16.46 17.26C15.72 18.88 14.7 20.12 13.4 20.98C12.12 21.82 10.66 22.24 9.02 22.24ZM9.02 19.57C10.7 19.57 12.04 18.88 13.04 17.5C14.06 16.12 14.57 14.12 14.57 11.5C14.57 8.88 14.06 6.88 13.04 5.5C12.04 4.12 10.7 3.43 9.02 3.43C7.32 3.43 5.96 4.12 4.94 5.5C3.94 6.88 3.44 8.88 3.44 11.5C3.44 14.12 3.94 16.12 4.94 17.5C5.96 18.88 7.32 19.57 9.02 19.57ZM26.8719 0.999999V22H23.9019V3.61H19.1619V0.999999H26.8719Z" fill="#0ECCDD"/>
</svg>
