<svg width="36" height="23" viewBox="0 0 36 23" fill="none" xmlns="http://www.w3.org/2000/svg">
<path d="M9.02 22.24C7.36 22.24 5.88 21.82 4.58 20.98C3.3 20.12 2.29 18.88 1.55 17.26C0.81 15.64 0.44 13.72 0.44 11.5C0.44 9.28 0.81 7.36 1.55 5.74C2.29 4.12 3.3 2.89 4.58 2.05C5.88 1.19 7.36 0.76 9.02 0.76C10.66 0.76 12.12 1.19 13.4 2.05C14.7 2.89 15.72 4.12 16.46 5.74C17.2 7.36 17.57 9.28 17.57 11.5C17.57 13.72 17.2 15.64 16.46 17.26C15.72 18.88 14.7 20.12 13.4 20.98C12.12 21.82 10.66 22.24 9.02 22.24ZM9.02 19.57C10.7 19.57 12.04 18.88 13.04 17.5C14.06 16.12 14.57 14.12 14.57 11.5C14.57 8.88 14.06 6.88 13.04 5.5C12.04 4.12 10.7 3.43 9.02 3.43C7.32 3.43 5.96 4.12 4.94 5.5C3.94 6.88 3.44 8.88 3.44 11.5C3.44 14.12 3.94 16.12 4.94 17.5C5.96 18.88 7.32 19.57 9.02 19.57ZM35.1219 19.39V22H20.0319V19.96L28.5819 11.71C29.6219 10.71 30.3219 9.85 30.6819 9.13C31.0419 8.39 31.2219 7.65 31.2219 6.91C31.2219 5.81 30.8319 4.96 30.0519 4.36C29.2919 3.74 28.1919 3.43 26.7519 3.43C24.4319 3.43 22.6419 4.19 21.3819 5.71L19.3419 3.94C20.1619 2.94 21.2319 2.16 22.5519 1.6C23.8919 1.04 25.3819 0.76 27.0219 0.76C29.2219 0.76 30.9719 1.29 32.2719 2.35C33.5719 3.39 34.2219 4.81 34.2219 6.61C34.2219 7.73 33.9819 8.79 33.5019 9.79C33.0219 10.79 32.1119 11.93 30.7719 13.21L24.3519 19.39H35.1219Z" fill="#0ECCDD"/>
</svg>
